<?xml version="1.0" encoding="UTF-8"?>
<!-- Generator: Adobe Illustrator 27.3.0, SVG Export Plug-In . SVG Version: 6.00 Build 0)  -->
<svg xmlns="http://www.w3.org/2000/svg" xmlns:xlink="http://www.w3.org/1999/xlink" version="1.1" id="Component_24_7" x="0px" y="0px" viewBox="0 0 86.9 111.6" style="enable-background:new 0 0 86.9 111.6;" xml:space="preserve">
<style type="text/css">
	.st0{fill:#FF7700;}
</style>
<g id="Group_107" transform="translate(10.712)">
	<g id="Group_104" transform="translate(43.715 0.962)">
		<g id="Group_103" transform="translate(0)">
			<path id="Path_104" d="M2.2,76.8l2.4,2.4c-0.8,0.7-1.3,1.6-1.5,2.7c0,0.4,0.1,0.7,0.3,1c0.2,0.2,0.4,0.4,0.7,0.4     c0.2,0,0.4-0.1,0.6-0.2c0.3-0.4,0.5-0.7,0.7-1.2l0.7-1.4c0.5-1.2,1.3-2.3,2.3-3.1c0.8-0.6,1.8-0.9,2.7-0.8c1.3,0,2.6,0.5,3.5,1.5     c1,1.1,1.5,2.6,1.4,4.1c0.1,2.2-0.9,4.2-2.7,5.5l-2.6-2.4c0.5-0.5,1-1,1.3-1.6c0.3-0.5,0.5-1.1,0.5-1.6c0-0.4-0.1-0.9-0.4-1.3     c-0.2-0.3-0.5-0.5-0.9-0.5c-0.6,0-1.2,0.6-1.8,1.7l-0.7,1.3C7.6,85.7,6,87,4.1,87c-1.2,0-2.4-0.5-3.2-1.4c-0.9-1-1.4-2.3-1.3-3.7     c0-1,0.2-2,0.7-2.9C0.7,78.1,1.4,77.4,2.2,76.8z"></path>
			<path id="Path_105" d="M0,69.5h1.7c-0.7-0.7-1.2-1.4-1.6-2.3c-0.4-0.8-0.5-1.7-0.5-2.6c0-2,0.8-3.9,2.3-5.2     c1.6-1.5,3.8-2.2,5.9-2.1c2.2-0.1,4.3,0.7,5.8,2.2c1.5,1.3,2.4,3.2,2.3,5.2c0,0.9-0.2,1.7-0.5,2.5c-0.4,0.9-0.9,1.6-1.6,2.3h7.4     v3.9H0L0,69.5z M3.2,65.4c0,1.2,0.4,2.3,1.3,3.1c0.9,0.8,2.1,1.3,3.3,1.2c1.2,0.1,2.5-0.4,3.4-1.2c0.8-0.8,1.3-1.9,1.3-3.1     c0-1.2-0.5-2.3-1.3-3c-0.9-0.8-2.1-1.3-3.3-1.2c-1.2,0-2.4,0.4-3.3,1.2C3.7,63.1,3.2,64.2,3.2,65.4z"></path>
			<path id="Path_106" d="M0,42.4v-3.9h15.6v3.9H14c0.7,0.7,1.2,1.4,1.6,2.3c0.3,0.8,0.5,1.6,0.5,2.5c0,2-0.8,3.9-2.3,5.2     c-1.6,1.5-3.7,2.3-5.8,2.2c-2.2,0.1-4.3-0.7-5.9-2.1c-1.5-1.3-2.3-3.2-2.3-5.2c0-0.9,0.2-1.8,0.5-2.6c0.4-0.9,0.9-1.6,1.6-2.3     L0,42.4z M3.2,46.5c0,1.1,0.4,2.2,1.3,3c0.9,0.8,2.1,1.2,3.3,1.2c1.2,0,2.4-0.4,3.3-1.2c0.9-0.8,1.3-1.9,1.3-3     c0-1.2-0.4-2.3-1.3-3.1c-0.9-0.8-2.1-1.3-3.4-1.2c-1.2-0.1-2.4,0.4-3.3,1.2C3.7,44.3,3.2,45.4,3.2,46.5z"></path>
			<path id="Path_107" d="M3.2,19.2L5,22.5c-0.6,0.5-1,1.1-1.3,1.8c-0.3,0.7-0.4,1.4-0.4,2.1C3.2,27.7,3.7,29,4.6,30     c0.9,0.9,2.1,1.4,3.4,1.4c1.2,0,2.4-0.4,3.3-1.3c0.9-0.9,1.3-2.2,1.3-3.4c0.1-1.6-0.6-3.1-1.8-4.1l2.1-3.1     c2.2,1.7,3.4,4.3,3.3,7.1c0.1,2.4-0.8,4.8-2.4,6.5c-1.5,1.5-3.6,2.4-5.7,2.3c-1.5,0-2.9-0.4-4.2-1.1c-1.3-0.8-2.3-1.9-3-3.2     c-0.7-1.4-1.1-3-1.1-4.5c0-1.4,0.3-2.9,0.9-4.2C1.2,21,2.1,20,3.2,19.2z"></path>
			<path id="Path_108" d="M9,0v12.6c1-0.1,2-0.7,2.7-1.5c0.7-0.9,1-1.9,1-3c0-1.4-0.5-2.8-1.5-3.8L12.6,1c1.1,0.7,2,1.8,2.6,3     c0.6,1.3,0.9,2.7,0.8,4.1c0.1,2.2-0.8,4.4-2.3,6c-1.5,1.5-3.6,2.4-5.8,2.3c-2.2,0.1-4.4-0.8-5.9-2.3c-1.6-1.5-2.4-3.6-2.4-5.8     c-0.1-2.2,0.8-4.4,2.4-6C3.7,0.7,5.9-0.1,8.2,0L9,0z M5.9,3.9C5,4.2,4.3,4.7,3.8,5.5C3.2,6.3,2.9,7.2,2.9,8.1c0,1,0.3,2,0.9,2.9     c0.5,0.6,1.2,1.1,2,1.4L5.9,3.9z"></path>
		</g>
	</g>
	<g id="Group_106">
		<g id="Group_105">
			<path id="Path_109" class="st0" d="M37.4,0v89.5H15v-48c0-6.9-0.2-11.1-0.5-12.5c-0.4-1.4-1.4-2.6-2.7-3.2     c-1.5-0.7-4.8-1.1-10-1.1h-2.2V14.3C10.4,12,18.6,7.2,24.2,0L37.4,0z"></path>
		</g>
	</g>
</g>
<g>
	<path class="st0" d="M8.9,97h2.2l4.4,11.6h-2.3l-0.9-2.4H7.7l-0.9,2.4H4.5L8.9,97z M10.1,100l-1.6,4h3.1L10.1,100z"></path>
	<path class="st0" d="M16.6,100h1.8v1.1c0.2-0.4,0.5-0.7,0.8-1c0.3-0.2,0.7-0.3,1.1-0.3c0.3,0,0.6,0.1,0.9,0.2l-0.7,1.8   c-0.3-0.1-0.5-0.2-0.6-0.2c-0.3,0-0.6,0.2-0.8,0.6c-0.2,0.4-0.3,1.2-0.3,2.4l0,0.4v3.5h-2.1V100z"></path>
	<path class="st0" d="M30.6,101.7l-1.8,1c-0.3-0.4-0.7-0.6-1-0.7c-0.3-0.1-0.7-0.2-1.2-0.2c-0.8,0-1.5,0.2-1.9,0.7s-0.7,1.1-0.7,1.8   c0,0.7,0.2,1.3,0.7,1.8c0.5,0.5,1.1,0.7,1.9,0.7c1,0,1.7-0.3,2.2-1l1.7,1.2c-0.9,1.2-2.2,1.8-3.9,1.8c-1.5,0-2.7-0.4-3.5-1.3   c-0.9-0.9-1.3-1.9-1.3-3.1c0-0.8,0.2-1.6,0.6-2.3c0.4-0.7,1-1.2,1.7-1.6c0.7-0.4,1.6-0.6,2.5-0.6c0.8,0,1.6,0.2,2.3,0.5   S30.2,101.1,30.6,101.7z"></path>
	<path class="st0" d="M32.5,96.7h2.1v4.2c0.4-0.4,0.8-0.6,1.3-0.8c0.4-0.2,0.9-0.3,1.3-0.3c0.8,0,1.6,0.3,2.1,0.9   c0.5,0.5,0.7,1.3,0.7,2.2v5.6H38v-3.7c0-1,0-1.7-0.1-2c-0.1-0.4-0.3-0.6-0.5-0.8s-0.5-0.3-0.8-0.3c-0.4,0-0.8,0.1-1.1,0.4   s-0.5,0.7-0.6,1.2c-0.1,0.3-0.1,0.8-0.1,1.8v3.4h-2.1V96.7z"></path>
	<path class="st0" d="M43,96.4c0.4,0,0.7,0.1,1,0.4s0.4,0.6,0.4,1c0,0.4-0.1,0.7-0.4,1c-0.3,0.3-0.6,0.4-1,0.4c-0.4,0-0.7-0.1-1-0.4   c-0.3-0.3-0.4-0.6-0.4-1c0-0.4,0.1-0.7,0.4-1C42.3,96.6,42.6,96.4,43,96.4z M41.9,100h2.1v8.5h-2.1V100z"></path>
	<path class="st0" d="M46.3,96.8h2.1v3.2h1.3v1.8h-1.3v6.7h-2.1v-6.7h-1.1V100h1.1V96.8z"></path>
	<path class="st0" d="M59.4,104.9h-6.9c0.1,0.6,0.4,1.1,0.8,1.4c0.4,0.4,1,0.5,1.7,0.5c0.8,0,1.5-0.3,2.1-0.8l1.8,0.8   c-0.5,0.6-1,1.1-1.6,1.4c-0.6,0.3-1.4,0.5-2.2,0.5c-1.3,0-2.4-0.4-3.3-1.3c-0.8-0.8-1.3-1.9-1.3-3.2c0-1.3,0.4-2.4,1.3-3.2   c0.8-0.9,1.9-1.3,3.2-1.3c1.3,0,2.4,0.4,3.3,1.3c0.8,0.9,1.3,2,1.3,3.4L59.4,104.9z M57.3,103.2c-0.1-0.5-0.4-0.9-0.8-1.2   s-0.9-0.4-1.5-0.4c-0.6,0-1.1,0.2-1.6,0.5c-0.3,0.2-0.5,0.6-0.8,1.1H57.3z"></path>
	<path class="st0" d="M69.5,101.7l-1.8,1c-0.3-0.4-0.7-0.6-1-0.7c-0.3-0.1-0.7-0.2-1.2-0.2c-0.8,0-1.5,0.2-1.9,0.7   c-0.5,0.5-0.7,1.1-0.7,1.8c0,0.7,0.2,1.3,0.7,1.8c0.5,0.5,1.1,0.7,1.9,0.7c1,0,1.7-0.3,2.2-1l1.7,1.2c-0.9,1.2-2.2,1.8-3.9,1.8   c-1.5,0-2.7-0.4-3.5-1.3c-0.9-0.9-1.3-1.9-1.3-3.1c0-0.8,0.2-1.6,0.6-2.3c0.4-0.7,1-1.2,1.7-1.6c0.7-0.4,1.6-0.6,2.5-0.6   c0.8,0,1.6,0.2,2.3,0.5S69.1,101.1,69.5,101.7z"></path>
	<path class="st0" d="M71.7,96.8h2.1v3.2h1.3v1.8h-1.3v6.7h-2.1v-6.7h-1.1V100h1.1V96.8z"></path>
	<path class="st0" d="M81.5,101.2l-1.3,1.3c-0.5-0.5-1-0.8-1.5-0.8c-0.2,0-0.4,0.1-0.6,0.2c-0.1,0.1-0.2,0.2-0.2,0.4   c0,0.1,0,0.2,0.1,0.3c0.1,0.1,0.3,0.2,0.6,0.4l0.8,0.4c0.8,0.4,1.4,0.8,1.7,1.2c0.3,0.4,0.5,0.9,0.5,1.5c0,0.8-0.3,1.4-0.8,1.9   s-1.3,0.8-2.2,0.8c-1.2,0-2.2-0.5-3-1.5l1.3-1.4c0.3,0.3,0.5,0.5,0.9,0.7c0.3,0.2,0.6,0.3,0.9,0.3c0.3,0,0.5-0.1,0.7-0.2   s0.3-0.3,0.3-0.5c0-0.3-0.3-0.7-0.9-1l-0.7-0.4c-1.4-0.7-2.1-1.6-2.1-2.6c0-0.7,0.3-1.3,0.8-1.7c0.5-0.5,1.2-0.7,2-0.7   c0.6,0,1.1,0.1,1.6,0.4C80.8,100.3,81.2,100.7,81.5,101.2z"></path>
</g>
<text transform="matrix(1 0 0 1 3.9731 145.2284)" class="st0" style="font-family:'CenturyGothic-Bold'; font-size:16.0915px;">Architects</text>
</svg>
